<svg xmlns="http://www.w3.org/2000/svg" xmlns:xlink="http://www.w3.org/1999/xlink" width="152.347" height="153.051" viewBox="0 0 152.347 153.051"><defs><linearGradient id="a" x1="0.5" y1="0.152" x2="0.5" y2="1.022" gradientUnits="objectBoundingBox"><stop offset="0" stop-color="#1981fc"/><stop offset="1" stop-color="#2c4096"/></linearGradient><linearGradient id="b" x1="0.5" y1="0.152" x2="0.5" y2="1.022" gradientUnits="objectBoundingBox"><stop offset="0.064" stop-color="#3458ae"/><stop offset="1" stop-color="#1981fc"/></linearGradient><linearGradient id="c" y1="0.5" x2="1" y2="0.5" gradientUnits="objectBoundingBox"><stop offset="0" stop-color="#fdbb22"/><stop offset="1" stop-color="#f74c1d"/></linearGradient><linearGradient id="d" x1="0.864" y1="0.1" x2="-0.006" y2="1.056" xlink:href="#c"/><linearGradient id="f" x1="0.911" y1="0.141" x2="-0.028" y2="0.961" xlink:href="#c"/><linearGradient id="h" x1="1.16" y1="-0.011" x2="0.048" y2="0.85" xlink:href="#c"/><linearGradient id="j" x1="1.305" y1="-0.147" x2="-0.754" y2="1.511" xlink:href="#c"/><linearGradient id="k" x1="0" y1="0.498" x2="7.686" y2="0.498" xlink:href="#a"/><linearGradient id="l" x1="-1.982" y1="0.498" x2="11.755" y2="0.498" xlink:href="#a"/><linearGradient id="m" x1="-2.355" y1="0.498" x2="7.787" y2="0.498" xlink:href="#a"/><linearGradient id="n" x1="-3.099" y1="0.498" x2="5.826" y2="0.498" xlink:href="#a"/><linearGradient id="o" x1="-3.639" y1="0.498" x2="4.047" y2="0.498" xlink:href="#a"/><linearGradient id="p" x1="-5.986" y1="0.498" x2="3.704" y2="0.498" xlink:href="#a"/><linearGradient id="q" x1="-5.531" y1="0.5" x2="2.006" y2="0.5" xlink:href="#a"/><linearGradient id="r" x1="-7.135" y1="0.498" x2="1" y2="0.498" xlink:href="#a"/><linearGradient id="s" y1="0.506" x2="68.938" y2="0.506" gradientUnits="objectBoundingBox"><stop offset="0" stop-color="#f74c1d"/><stop offset="1" stop-color="#fdbb22"/></linearGradient><linearGradient id="t" x1="-0.585" y1="0.338" x2="11.153" y2="0.338" xlink:href="#s"/><linearGradient id="u" x1="-1.857" y1="0.338" x2="9.417" y2="0.338" xlink:href="#s"/><linearGradient id="v" x1="-6.878" y1="0.345" x2="16.516" y2="0.345" xlink:href="#s"/><linearGradient id="w" x1="-4.718" y1="0.345" x2="8.049" y2="0.345" xlink:href="#s"/><linearGradient id="x" x1="-3.886" y1="0.345" x2="3.228" y2="0.345" xlink:href="#s"/><linearGradient id="y" x1="-8.16" y1="0.338" x2="3.155" y2="0.338" xlink:href="#s"/><linearGradient id="z" x1="-19.762" y1="0.345" x2="3.632" y2="0.345" xlink:href="#s"/><linearGradient id="aa" x1="-10.738" y1="0.338" x2="1" y2="0.338" xlink:href="#s"/></defs><g transform="translate(-560.985 -86.12)"><path d="M646.826,86.125H634.968l-18.492,49.83a19.138,19.138,0,0,1,3.705.717l8.43-23.5,12.576,37.906,1.158,3.185L652.914,185.5h30.37ZM598.089,185.5h4.481l4.2-11.773a19.557,19.557,0,0,1-3.567-2.007Z" fill="url(#a)"/><path d="M646.83,86.12H635.09l36.46,99.38h11.73Z" fill="url(#b)"/><path d="M631.05,155.61a16.45,16.45,0,0,1-16.45,16.45,16.233,16.233,0,0,1-5.42-.92,16.45,16.45,0,0,1,0-31.07,16.233,16.233,0,0,1,5.42-.92A16.452,16.452,0,0,1,631.05,155.61Z" fill="url(#c)"/><path d="M620.22,155.61a16.453,16.453,0,0,1-11.04,15.53,16.45,16.45,0,0,1,0-31.07A16.456,16.456,0,0,1,620.22,155.61Z" fill="url(#d)"/><path d="M607.28,128.47a8.015,8.015,0,0,1-8.01,8.01,7.665,7.665,0,0,1-2.36-.36h-.02a8.012,8.012,0,0,1,0-15.3h.02a7.666,7.666,0,0,1,2.36-.36A8.008,8.008,0,0,1,607.28,128.47Z" fill="url(#c)"/><path d="M602.54,128.47a8.026,8.026,0,0,1-5.63,7.65h-.02a8.012,8.012,0,0,1,0-15.3h.02A8.007,8.007,0,0,1,602.54,128.47Z" fill="url(#f)"/><path d="M614.18,109.04a5.787,5.787,0,0,1-5.79,5.79,5.49,5.49,0,0,1-1.53-.21,5.785,5.785,0,0,1,0-11.16,5.49,5.49,0,0,1,1.53-.21A5.787,5.787,0,0,1,614.18,109.04Z" fill="url(#c)"/><ellipse cx="4.26" cy="5.58" rx="4.26" ry="5.58" transform="translate(602.6 103.46)" fill="url(#h)"/><path d="M625.76,99.41a3.882,3.882,0,0,1-3.88,3.87,3.721,3.721,0,0,1-1.66-.39,3.861,3.861,0,0,1,0-6.98,3.713,3.713,0,0,1,1.66-.38A3.884,3.884,0,0,1,625.76,99.41Z" fill="url(#c)"/><path d="M622.41,99.41a2.441,2.441,0,1,1-2.19-3.5A3.852,3.852,0,0,1,622.41,99.41Z" fill="url(#j)"/><path d="M574.546,217.97H567.19l-1.179,3.481h-5.026l7.132-19.709h5.559l7.131,19.709h-5.081Zm-3.678-10.922-2.415,7.216h4.858Z" fill="url(#k)"/><path d="M587.771,201.742v16h6.29v3.706h-11.09V201.742Z" fill="url(#l)"/><path d="M604.14,214.376h-2.976v7.075h-4.8V201.742h7.777c4.829,0,7.244,2.723,7.244,6.345C611.384,211.344,609.166,214.376,604.14,214.376Zm-.365-3.818c1.909,0,2.723-.955,2.723-2.471s-.814-2.471-2.723-2.471h-2.611v4.942Z" fill="url(#m)"/><path d="M626.152,213.337h-7.467v8.114h-4.8V201.742h4.8v7.721h7.467v-7.721h4.8v19.709h-4.8Z" fill="url(#n)"/><path d="M646.677,217.97h-7.356l-1.179,3.481h-5.026l7.132-19.709h5.559l7.131,19.709h-5.082ZM643,207.048l-2.415,7.216h4.857Z" fill="url(#o)"/><path d="M664.281,221.451H655.1V201.742h8.873c4.014,0,6.4,1.993,6.4,5.11a4.472,4.472,0,0,1-3.341,4.492,4.778,4.778,0,0,1,3.79,4.745C670.822,219.346,668.437,221.451,664.281,221.451Zm-1.235-15.863H659.9v4.127h3.145c1.572,0,2.442-.7,2.442-2.049S664.618,205.588,663.046,205.588Zm.337,7.637H659.9v4.352h3.537c1.6,0,2.528-.73,2.528-2.134S664.982,213.225,663.383,213.225Z" fill="url(#p)"/><path d="M682.926,221.647a10.093,10.093,0,1,1,10.079-10.107A9.915,9.915,0,0,1,682.926,221.647Zm0-4.379c3.144,0,5.193-2.274,5.193-5.728,0-3.509-2.049-5.727-5.193-5.727-3.2,0-5.223,2.218-5.223,5.727C677.7,214.994,679.725,217.268,682.926,217.268Z" fill="url(#q)"/><path d="M703.73,215.415l-3.538,6.036h-5.446l6.317-10.023-6.458-9.686h5.587l3.959,5.952,3.482-5.952h5.447l-6.262,9.939,6.514,9.77h-5.587Z" fill="url(#r)"/><path d="M601.217,230.645h1.035v8.423h-1.035Z" fill="url(#s)"/><path d="M607.854,239.171a3.005,3.005,0,0,1-3.084-3.233,2.968,2.968,0,0,1,3.084-3.21,2.86,2.86,0,0,1,2.995,2.982,5.56,5.56,0,0,1-.035.626h-4.986a1.961,1.961,0,0,0,2.026,1.958,1.714,1.714,0,0,0,1.753-1.149h1.116A2.806,2.806,0,0,1,607.854,239.171Zm-2.014-3.677h3.938a1.83,1.83,0,0,0-1.969-1.89A1.931,1.931,0,0,0,605.84,235.494Z" fill="url(#t)"/><path d="M615.931,232.728a2.588,2.588,0,0,1,2.322,1.241v-1.138H619.3v6.237h-1.047v-1.161a2.607,2.607,0,0,1-2.334,1.264,3,3,0,0,1-2.948-3.244A2.956,2.956,0,0,1,615.931,232.728Zm.2.9a2.107,2.107,0,0,0-2.107,2.3,2.12,2.12,0,1,0,2.107-2.3Z" fill="url(#u)"/><path d="M623.231,239.068H622.2v-6.237h1.035v1.013a2.1,2.1,0,0,1,2.015-1.127v1.07h-.272c-.991,0-1.743.443-1.743,1.889Z" fill="url(#v)"/><path d="M632.148,235.54c0-1.275-.694-1.924-1.742-1.924s-1.787.66-1.787,2v3.449h-1.035v-6.237h1.035v.887a2.3,2.3,0,0,1,2-1,2.42,2.42,0,0,1,2.55,2.675v3.676h-1.025Z" fill="url(#w)"/><path d="M649.2,235.54c0-1.275-.683-1.924-1.708-1.924-1.047,0-1.764.672-1.764,2.015v3.437H644.7V235.54c0-1.275-.682-1.924-1.707-1.924-1.047,0-1.764.672-1.764,2.015v3.437h-1.036v-6.237h1.036v.9a2.255,2.255,0,0,1,1.969-1.012,2.347,2.347,0,0,1,2.288,1.388,2.309,2.309,0,0,1,2.208-1.388,2.415,2.415,0,0,1,2.528,2.675v3.676H649.2Z" fill="url(#x)"/><path d="M655.783,239.171a3.222,3.222,0,1,1,3.2-3.233A3.093,3.093,0,0,1,655.783,239.171Zm0-.911a2.117,2.117,0,0,0,2.141-2.322,2.1,2.1,0,0,0-2.107-2.311,2.332,2.332,0,0,0-.034,4.633Z" fill="url(#y)"/><path d="M662.527,239.068h-1.035v-6.237h1.035v1.013a2.1,2.1,0,0,1,2.015-1.127v1.07h-.272c-.991,0-1.743.443-1.743,1.889Z" fill="url(#z)"/><path d="M669.576,239.171a3.006,3.006,0,0,1-3.085-3.233,2.969,2.969,0,0,1,3.085-3.21,2.86,2.86,0,0,1,2.994,2.982,5.548,5.548,0,0,1-.034.626H667.55a1.961,1.961,0,0,0,2.026,1.958,1.714,1.714,0,0,0,1.753-1.149h1.115A2.8,2.8,0,0,1,669.576,239.171Zm-2.014-3.677H671.5a1.83,1.83,0,0,0-1.97-1.89A1.931,1.931,0,0,0,667.562,235.494Z" fill="url(#aa)"/></g></svg>